<svg width="24" height="24" viewBox="0 0 24 24" fill="none" xmlns="http://www.w3.org/2000/svg">
<g clip-path="url(#clip0_21_2355)">
<path d="M22.4905 11.925C22.4905 11.0864 22.4224 10.4745 22.2752 9.83984H12.6992V13.6248H18.3201C18.2068 14.5655 17.5948 15.982 16.2349 16.9339L16.2159 17.0606L19.2436 19.4062L19.4534 19.4271C21.3798 17.6479 22.4905 15.0301 22.4905 11.925Z" fill="#4285F4"/>
<path d="M12.6992 21.8988C15.453 21.8988 17.7648 20.9922 19.4534 19.4284L16.2349 16.9352C15.3737 17.5358 14.2177 17.9551 12.6992 17.9551C10.0021 17.9551 7.71297 16.1759 6.89695 13.7168L6.77734 13.727L3.62906 16.1634L3.58789 16.2779C5.26508 19.6096 8.71016 21.8988 12.6992 21.8988Z" fill="#34A853"/>
<path d="M6.89695 13.7155C6.68164 13.0809 6.55703 12.4009 6.55703 11.6983C6.55703 10.9956 6.68164 10.3157 6.88562 9.68109L6.87992 9.54594L3.69219 7.07031L3.58789 7.11992C2.89664 8.5025 2.5 10.0551 2.5 11.6983C2.5 13.3415 2.89664 14.894 3.58789 16.2766L6.89695 13.7155Z" fill="#FBBC05"/>
<path d="M12.6992 5.44367C14.6144 5.44367 15.9062 6.27094 16.6429 6.96227L19.5213 4.1518C17.7535 2.50859 15.453 1.5 12.6992 1.5C8.71016 1.5 5.26508 3.78914 3.58789 7.12086L6.88562 9.68203C7.71297 7.22289 10.0021 5.44367 12.6992 5.44367Z" fill="#EB4335"/>
</g>
<defs>
<clipPath id="clip0_21_2355">
<rect width="20" height="20.4688" fill="white" transform="translate(2.5 1.5)"/>
</clipPath>
</defs>
</svg>
